<svg width="26" height="29" viewBox="0 0 26 29" fill="none" xmlns="http://www.w3.org/2000/svg">
<path d="M9.15882 4.50341C9.93986 2.21775 13.098 2.14852 14.024 4.29574L14.1024 4.50472L15.1564 7.5871C15.398 8.294 15.7883 8.94088 16.3011 9.4841C16.8139 10.0273 17.4372 10.4542 18.1291 10.7361L18.4125 10.8419L21.4949 11.8946C23.7805 12.6756 23.8498 15.8338 21.7038 16.7598L21.4949 16.8382L18.4125 17.8922C17.7053 18.1336 17.0582 18.5238 16.5148 19.0366C15.9713 19.5495 15.5442 20.1729 15.2622 20.8648L15.1564 21.147L14.1037 24.2306C13.3226 26.5163 10.1645 26.5855 9.2398 24.4396L9.15882 24.2306L8.10611 21.1483C7.86472 20.4411 7.47445 19.794 6.96163 19.2505C6.44882 18.7071 5.8254 18.2799 5.13344 17.998L4.85132 17.8922L1.76894 16.8395C-0.518026 16.0584 -0.587248 12.9003 1.55997 11.9756L1.76894 11.8946L4.85132 10.8419C5.55823 10.6003 6.2051 10.21 6.74832 9.69718C7.29155 9.18438 7.71848 8.56104 8.00032 7.86921L8.10611 7.5871L9.15882 4.50341ZM22.08 2.35995e-07C22.3243 -3.08202e-07 22.5638 0.0685415 22.7711 0.197836C22.9785 0.32713 23.1454 0.511992 23.2529 0.731412L23.3156 0.884225L23.7727 2.22428L25.1141 2.68141C25.3589 2.7646 25.5736 2.91862 25.7308 3.12393C25.8881 3.32925 25.9808 3.57663 25.9973 3.83472C26.0138 4.09281 25.9534 4.34998 25.8236 4.57366C25.6937 4.79734 25.5005 4.97744 25.2682 5.09115L25.1141 5.15384L23.774 5.61098L23.3169 6.95233C23.2335 7.19713 23.0794 7.41169 22.874 7.5688C22.6686 7.72592 22.4212 7.81852 22.1631 7.83489C21.905 7.85126 21.6479 7.79064 21.4243 7.66073C21.2007 7.53082 21.0207 7.33746 20.9071 7.10515L20.8444 6.95233L20.3873 5.61228L19.0459 5.15515C18.8011 5.07196 18.5864 4.91794 18.4292 4.71263C18.2719 4.50731 18.1792 4.25993 18.1627 4.00184C18.1462 3.74376 18.2066 3.48658 18.3365 3.2629C18.4663 3.03922 18.6596 2.85912 18.8918 2.74541L19.0459 2.68272L20.386 2.22558L20.8431 0.884225C20.9312 0.626175 21.0978 0.402157 21.3196 0.243585C21.5415 0.0850123 21.8073 -0.000163629 22.08 2.35995e-07Z" fill="#005AFF"/>
</svg>
